:version 1.10
:name ASF
:units
  mass 1
  length 1
  angle deg
:documentation
  ASF file generated by Kaydara
:root
  axis xyz
  order  tx ty tz rx ry rz
  position 0 0 0
  orientation 0 0 0
:bonedata
  begin
    id 1
    name RightUpLegDummy
    direction -0.718183 -0.695806 0.00816078
    length 4.904
    axis 0 0 0 xyz
  end
  begin
    id 2
    name RightUpLeg
    direction 3.53989e-006 -0.995788 0.0916897
    length 17.4976
    axis -3.49089 -0.000906621 0.000287158 xyz
    dof rx ry rz
  end
  begin
    id 3
    name RightLeg
    direction 0.00371093 -0.995096 -0.0988418
    length 16.5821
    axis 3.68512 0.0193738 -0.131023 xyz
    dof rx ry rz
  end
  begin
    id 4
    name RightFoot
    direction 0.000791514 -0.46099 0.887405
    length 3.77069
    axis 4.84075e-005 -0.120479 -0.188788 xyz
    dof rx ry rz
  end
  begin
    id 5
    name RightToes
    direction 0.00124746 -0.014064 0.9999
    length 3.85082
    axis 0.00048216 0.542163 -0.142577 xyz
    dof rx ry rz
  end
  begin
    id 6
    name SpineDummy
    direction 8.36599e-015 1 5.97571e-016
    length 4.6813
    axis 0 0 0 xyz
  end
  begin
    id 7
    name Spine
    direction -4.63632e-008 0.999988 0.00495137
    length 10.1015
    axis -0.00138897 0.000121419 3.25764e-006 xyz
    dof rx ry rz
  end
  begin
    id 8
    name Spine1
    direction 0 0 0
    length 0
    axis -0.00138896 0.000121452 2.39764e-006 xyz
    dof rx ry rz
  end
  begin
    id 9
    name HEadDummy
    direction -3.91456e-008 0.999999 0.00127422
    length 3.43865
    axis -0.00138896 0.000121452 2.39764e-006 xyz
  end
  begin
    id 10
    name HEad
    direction -0.0222688 0.980941 0.193023
    length 5.12695
    axis -0.00138895 0.000121452 2.39764e-006 xyz
    dof rx ry rz
  end
  begin
    id 11
    name LeftShoulder1Dummy
    direction 0.998891 -0.0402508 -0.0244456
    length 3.5433
    axis -0.00138896 0.000121452 2.39764e-006 xyz
  end
  begin
    id 12
    name LeftShoulder1
    direction 0.99951 -0.000327743 0.0313091
    length 4.05031
    axis -0.00138896 0.000121452 2.39764e-006 xyz
    dof rx ry rz
  end
  begin
    id 13
    name LeftArm
    direction 0.998561 -0.00100054 -0.0536182
    length 10.3537
    axis -23.1894 0.134784 0.96751 xyz
    dof rx ry rz
  end
  begin
    id 14
    name LeftForeArm
    direction 0.998903 0.00866434 0.046012
    length 8.70632
    axis -9.91835 -0.06569 -0.177792 xyz
    dof rx ry rz
  end
  begin
    id 15
    name LeftHand
    direction 0.992938 -0.0411636 0.11126
    length 5.32135
    axis -0.00960227 -0.00340091 0.185174 xyz
    dof rx ry rz
  end
  begin
    id 16
    name RightShoulderDummy
    direction -0.998891 -0.0402509 -0.0244414
    length 3.5433
    axis -0.00138896 0.000121452 2.39764e-006 xyz
  end
  begin
    id 17
    name RightShoulder
    direction -0.99951 -0.000327827 0.0313133
    length 4.05031
    axis 0.215806 0.000203644 -0.00680151 xyz
    dof rx ry rz
  end
  begin
    id 18
    name RightArm
    direction -0.998573 -0.000999583 -0.053403
    length 10.3947
    axis -23.2009 -0.134239 -0.9641 xyz
    dof rx ry rz
  end
  begin
    id 19
    name RightForeArm
    direction -0.998898 0.00868026 0.0461306
    length 8.68355
    axis -9.92322 0.0658061 0.178869 xyz
    dof rx ry rz
  end
  begin
    id 20
    name RightHand
    direction -0.992843 -0.0414603 0.112003
    length 5.28593
    axis -0.00960634 0.00330671 -0.185226 xyz
    dof rx ry rz
  end
  begin
    id 21
    name LeftUpLegDummy
    direction 0.718183 -0.695806 0.00816078
    length 4.904
    axis 0 0 0 xyz
  end
  begin
    id 22
    name LeftUpLeg
    direction -6.8115e-006 -0.995793 0.0916336
    length 17.4976
    axis -3.48766 0.00143441 -0.000523914 xyz
    dof rx ry rz
  end
  begin
    id 23
    name LeftLeg
    direction -0.00601357 -0.995091 -0.0987824
    length 16.5821
    axis 3.68177 -0.00654038 -0.00028478 xyz
    dof rx ry rz
  end
  begin
    id 24
    name LeftFoot
    direction -0.00417578 -0.460984 0.887399
    length 3.77069
    axis 1.87232e-006 4.66002e-005 -8.1837e-006 xyz
    dof rx ry rz
  end
  begin
    id 25
    name LeftToes
    direction 0.00818058 -0.00485161 0.999955
    length 3.85048
    axis 1.06246e-005 4.65855e-005 -8.18502e-006 xyz
    dof rx ry rz
  end
:hierarchy
  begin
    root RightUpLegDummy SpineDummy LeftUpLegDummy
    RightUpLegDummy RightUpLeg
    RightUpLeg RightLeg
    RightLeg RightFoot
    RightFoot RightToes
    SpineDummy Spine
    Spine Spine1
    Spine1 HEadDummy LeftShoulder1Dummy RightShoulderDummy
    HEadDummy HEad
    LeftShoulder1Dummy LeftShoulder1
    LeftShoulder1 LeftArm
    LeftArm LeftForeArm
    LeftForeArm LeftHand
    RightShoulderDummy RightShoulder
    RightShoulder RightArm
    RightArm RightForeArm
    RightForeArm RightHand
    LeftUpLegDummy LeftUpLeg
    LeftUpLeg LeftLeg
    LeftLeg LeftFoot
    LeftFoot LeftToes
  end

:SAMPLES-PER-SECOND 30
:FULLY-SPECIFIED
:DEGREES
1
root  2.08623 40.1576 -0.663545 -1.59798 -82.1615 -4.15178
RightUpLeg  1.899 -6.6896 1.06112
RightLeg  6.4587 -12.8793 -0.0407896
RightFoot  -1.64931 -0.259705 2.89666
RightToes  -1.16417e-010 0 -3.6325e-017
Spine  6.67591 -0.348564 5.95227
Spine1  9.68427 -0.187775 1.47247
HEad  -17.5373 -13.6337 -1.17396
LeftShoulder1  2.76175 -6.68329 -20.7114
LeftArm  12.1202 3.28538 -57.1014
LeftForeArm  -0.316462 -12.4317 -12.6181
LeftHand  -0.390862 1.39959 11.3045
RightShoulder  1.58225 2.84965 18.4294
RightArm  -1.50087 3.10189 54.539
RightForeArm  31.112 -1.47678 15.659
RightHand  -0.288032 -2.66192 -11.9003
LeftUpLeg  -3.84292 3.85494 8.90012
LeftLeg  10.5806 3.99448 2.03302
LeftFoot  -4.09352 0.803595 -12.2711
LeftToes  6.91183e-011 3.39355e-011 2.1261e-011
2
root  2.07197 40.2106 -0.694646 -3.15532 -82.1973 -2.48997
RightUpLeg  2.13093 -6.70518 0.849795
RightLeg  5.79888 -12.8234 0.150551
RightFoot  -1.33264 -0.252678 2.78763
RightToes  -1.16417e-010 0 -3.6325e-017
Spine  6.52826 -0.356228 5.57298
Spine1  9.5891 -0.286711 1.56602
HEad  -17.2101 -13.8947 -1.18228
LeftShoulder1  2.79126 -6.70538 -20.9575
LeftArm  12.8802 3.60538 -56.9965
LeftForeArm  -0.799509 -12.6375 -12.5627
LeftHand  -0.383035 1.29539 10.8073
RightShoulder  1.56232 2.79059 18.3402
RightArm  -2.03895 3.22748 54.4103
RightForeArm  31.1358 -1.46423 15.5676
RightHand  -0.277448 -2.76294 -11.8733
LeftUpLeg  -3.25853 4.9163 8.48428
LeftLeg  8.63187 3.06347 2.13402
LeftFoot  -3.29232 0.867885 -12.0199
LeftToes  6.91183e-011 3.39355e-011 2.1261e-011
3
root  2.05773 40.2498 -0.731986 -5.20305 -82.0699 -0.226873
RightUpLeg  2.06519 -6.76344 0.56602
RightLeg  5.54142 -12.8456 0.234521
RightFoot  -1.20192 -0.249571 2.73942
RightToes  -1.16417e-010 0 -3.6325e-017
Spine  6.2548 -0.508643 4.9154
Spine1  9.49186 -0.631269 1.99394
HEad  -16.9804 -14.3598 -1.17612
LeftShoulder1  2.81233 -6.75101 -21.0473
LeftArm  13.3781 4.03247 -57.0925
LeftForeArm  -0.80955 -12.4711 -12.7304
LeftHand  -0.389988 1.0116 10.3153
RightShoulder  1.55397 2.75415 18.3511
RightArm  -1.62852 3.60817 53.9785
RightForeArm  29.9278 -0.853851 15.5834
RightHand  -0.277917 -2.76342 -11.8966
LeftUpLeg  -2.72239 5.92017 8.03266
LeftLeg  6.59352 1.91372 2.11027
LeftFoot  -2.66568 0.949347 -12.2691
LeftToes  6.91183e-011 3.39355e-011 2.1261e-011
4
root  2.0695 40.229 -0.745241 -6.23432 -81.6479 0.871071
RightUpLeg  1.7124 -6.84583 0.413957
RightLeg  6.17221 -13.1181 0.0155826
RightFoot  -1.4963 -0.259323 2.89074
RightToes  -1.16417e-010 0 -3.6325e-017
Spine  6.26701 -0.830781 4.30539
Spine1  9.37644 -1.16786 2.72603
HEad  -17.0835 -14.8281 -1.14639
LeftShoulder1  2.82689 -6.89533 -20.791
LeftArm  12.1785 4.13416 -57.4696
LeftForeArm  0.993912 -11.2373 -13.3744
LeftHand  -0.426655 0.773767 10.7263
RightShoulder  1.55739 2.73864 18.4908
RightArm  -0.0701511 4.01308 53.4333
RightForeArm  27.8722 0.501154 15.6525
RightHand  -0.305178 -2.54453 -12.1271
LeftUpLeg  -2.91144 5.84713 8.02538
LeftLeg  6.8694 1.98915 1.93563
LeftFoot  -3.09891 0.988168 -13.4236
LeftToes  6.91183e-011 3.39355e-011 2.1261e-011
5
root  2.11086 40.1754 -0.724095 -6.30804 -81.1628 0.691428
RightUpLeg  1.55297 -6.96675 0.361244
RightLeg  7.04113 -13.4321 -0.292273
RightFoot  -1.90227 -0.275683 3.14459
RightToes  -1.16417e-010 0 -3.6325e-017
Spine  6.81863 -1.17726 3.95617
Spine1  9.12232 -1.66431 3.45993
HEad  -17.2733 -15.1712 -1.10595
LeftShoulder1  2.85803 -7.11262 -20.5091
LeftArm  9.70056 3.83235 -57.8369
LeftForeArm  4.11679 -9.22208 -14.2062
LeftHand  -0.472389 0.833923 12.0442
RightShoulder  1.55188 2.72595 18.4926
RightArm  1.35144 4.14494 53.1069
RightForeArm  26.1779 2.09685 15.5473
RightHand  -0.350218 -2.21285 -12.5568
LeftUpLeg  -3.65001 5.09325 8.48002
LeftLeg  9.41284 3.53669 1.83818
LeftFoot  -3.90314 0.970936 -14.5052
LeftToes  6.91183e-011 3.39355e-011 2.1261e-011
6
root  2.16274 40.1309 -0.668322 -6.0216 -81.0134 -0.00467915
RightUpLeg  1.70778 -7.15511 0.284079
RightLeg  7.53661 -13.372 -0.382452
RightFoot  -2.11078 -0.28593 3.30359
RightToes  -1.16417e-010 0 -3.6325e-017
Spine  7.59975 -1.39005 4.00179
Spine1  8.7591 -1.88399 3.79767
HEad  -17.3046 -15.3775 -1.02427
LeftShoulder1  2.88933 -7.2574 -20.4331
LeftArm  7.7646 3.37802 -57.9548
LeftForeArm  6.41426 -7.58873 -14.7404
LeftHand  -0.48305 1.24534 13.5041
RightShoulder  1.54811 2.74818 18.2725
RightArm  2.26282 4.044 53.029
RightForeArm  24.7366 3.42756 15.3413
RightHand  -0.394577 -1.91318 -12.9978
LeftUpLeg  -4.39013 4.21529 9.1473
LeftLeg  12.6863 5.66197 2.05604
LeftFoot  -3.90407 0.982638 -14.6964
LeftToes  6.91183e-011 3.39355e-011 2.1261e-011
7
root  2.20083 40.1052 -0.581357 -5.47533 -81.3808 -0.83727
RightUpLeg  1.86585 -7.35258 0.166273
RightLeg  7.71857 -12.8029 -0.236752
RightFoot  -2.14739 -0.287113 3.32195
RightToes  -1.16417e-010 0 -3.6325e-017
Spine  8.10366 -1.4239 4.43321
Spine1  8.46462 -1.75968 3.5355
HEad  -17.1333 -15.5396 -0.867461
LeftShoulder1  2.88953 -7.25936 -20.4299
LeftArm  7.32921 3.04031 -57.8524
LeftForeArm  6.61994 -7.16049 -14.8699
LeftHand  -0.446222 1.82384 14.423
RightShoulder  1.55253 2.81029 18.0872
RightArm  3.51768 3.9928 52.9537
RightForeArm  22.7352 4.37962 15.2625
RightHand  -0.421923 -1.74592 -13.2929
LeftUpLeg  -4.91162 3.55887 9.81211
LeftLeg  15.651 6.92648 2.49725
LeftFoot  -3.14011 1.05804 -14.4339
LeftToes  6.91183e-011 3.39355e-011 2.1261e-011
